<svg width="29" height="29" viewBox="0 0 29 29" fill="none" xmlns="http://www.w3.org/2000/svg">
<g clip-path="url(#clip0_1_246)">
<path fill-rule="evenodd" clip-rule="evenodd" d="M28.9478 16.582L27.3247 11.1609L24.1073 0.415743C24.0649 0.293349 23.9922 0.188534 23.8985 0.114739C23.8048 0.0409429 23.6944 0.00152588 23.5815 0.00152588C23.4685 0.00152588 23.3581 0.0409429 23.2645 0.114739C23.1708 0.188534 23.0981 0.293349 23.0557 0.415743L19.8383 11.1609H9.16064L5.94322 0.415743C5.90081 0.293349 5.82812 0.188534 5.73444 0.114739C5.64077 0.0409429 5.53038 0.00152588 5.41742 0.00152588C5.30446 0.00152588 5.19408 0.0409429 5.1004 0.114739C5.00673 0.188534 4.93403 0.293349 4.89163 0.415743L1.6742 11.1609L0.0544834 16.582C-0.0165381 16.826 -0.0156022 17.0908 0.0571415 17.3341C0.129885 17.5773 0.270244 17.7851 0.455815 17.9242L14.4999 29.001L28.5439 17.9242C28.7295 17.7851 28.8699 17.5773 28.9426 17.3341C29.0153 17.0908 29.0163 16.826 28.9453 16.582" fill="#FC6D26"/>
<path fill-rule="evenodd" clip-rule="evenodd" d="M14.5004 29L19.8397 11.1559H9.16035L14.5004 28.996V29Z" fill="#E24329"/>
<path fill-rule="evenodd" clip-rule="evenodd" d="M14.5004 29.001L9.16036 11.1599H1.67731L14.5004 29.001Z" fill="#FC6D26"/>
<path fill-rule="evenodd" clip-rule="evenodd" d="M1.67645 11.1599L0.0541935 16.581C-0.0168279 16.825 -0.0158922 17.0897 0.0568516 17.333C0.129595 17.5763 0.269954 17.7841 0.455525 17.9232L14.4996 29L1.67645 11.1599Z" fill="#FCA326"/>
<path fill-rule="evenodd" clip-rule="evenodd" d="M1.67731 11.1599H9.1612L5.94378 0.414705C5.90138 0.292311 5.82868 0.187497 5.73501 0.113701C5.64133 0.0399053 5.53095 0.000488281 5.41799 0.000488281C5.30503 0.000488281 5.19464 0.0399053 5.10096 0.113701C5.00729 0.187497 4.9346 0.292311 4.89219 0.414705L1.67731 11.1599Z" fill="#E24329"/>
<path fill-rule="evenodd" clip-rule="evenodd" d="M14.5004 29.0009L19.8405 11.1609H27.3244L14.5004 29.0009Z" fill="#FC6D26"/>
<path fill-rule="evenodd" clip-rule="evenodd" d="M27.3236 11.1599L28.9467 16.581C29.0177 16.825 29.0167 17.0897 28.944 17.333C28.8713 17.5763 28.7309 17.7841 28.5453 17.9232L14.5004 29L27.3236 11.1599Z" fill="#FCA326"/>
<path fill-rule="evenodd" clip-rule="evenodd" d="M27.3236 11.1599H19.8397L23.0571 0.414705C23.0995 0.292311 23.1722 0.187497 23.2659 0.113701C23.3595 0.0399053 23.4699 0.000488281 23.5829 0.000488281C23.6958 0.000488281 23.8062 0.0399053 23.8999 0.113701C23.9936 0.187497 24.0663 0.292311 24.1087 0.414705L27.3261 11.1599H27.3236Z" fill="#E24329"/>
</g>
<defs>
<clipPath id="clip0_1_246">
<rect width="29" height="29" fill="white"/>
</clipPath>
</defs>
</svg>
